<mxfile host="app.diagrams.net" modified="2021-07-12T05:42:49.955Z" agent="5.0 (Macintosh; Intel Mac OS X 10_15_7) AppleWebKit/537.36 (KHTML, like Gecko) Chrome/91.0.4472.114 Safari/537.36" etag="JZ8busB3iTX6d1hRDKG5" version="14.7.3" type="github">
  <diagram id="C5RBs43oDa-KdzZeNtuy" name="Page-1">
    <mxGraphModel dx="1113" dy="2991" grid="1" gridSize="10" guides="1" tooltips="1" connect="1" arrows="1" fold="1" page="1" pageScale="1" pageWidth="1654" pageHeight="2336" math="0" shadow="0">
      <root>
        <mxCell id="WIyWlLk6GJQsqaUBKTNV-0" />
        <mxCell id="WIyWlLk6GJQsqaUBKTNV-1" parent="WIyWlLk6GJQsqaUBKTNV-0" />
        <mxCell id="WIyWlLk6GJQsqaUBKTNV-2" value="" style="rounded=0;html=1;jettySize=auto;orthogonalLoop=1;fontSize=11;endArrow=block;endFill=0;endSize=8;strokeWidth=1;shadow=0;labelBackgroundColor=none;edgeStyle=orthogonalEdgeStyle;" parent="WIyWlLk6GJQsqaUBKTNV-1" source="WIyWlLk6GJQsqaUBKTNV-3" target="NYS3Yz4hThbu2-1FY5jQ-1" edge="1">
          <mxGeometry relative="1" as="geometry" />
        </mxCell>
        <mxCell id="WIyWlLk6GJQsqaUBKTNV-3" value="&amp;nbsp;Create Last activity" style="rounded=1;whiteSpace=wrap;html=1;fontSize=12;glass=0;strokeWidth=1;shadow=0;" parent="WIyWlLk6GJQsqaUBKTNV-1" vertex="1">
          <mxGeometry x="160" y="60" width="120" height="40" as="geometry" />
        </mxCell>
        <mxCell id="NYS3Yz4hThbu2-1FY5jQ-13" style="edgeStyle=orthogonalEdgeStyle;rounded=0;orthogonalLoop=1;jettySize=auto;html=1;exitX=0.5;exitY=1;exitDx=0;exitDy=0;" edge="1" parent="WIyWlLk6GJQsqaUBKTNV-1" source="NYS3Yz4hThbu2-1FY5jQ-1" target="NYS3Yz4hThbu2-1FY5jQ-12">
          <mxGeometry relative="1" as="geometry" />
        </mxCell>
        <mxCell id="NYS3Yz4hThbu2-1FY5jQ-1" value="Create Task have complete by tomorrow" style="rounded=1;whiteSpace=wrap;html=1;" vertex="1" parent="WIyWlLk6GJQsqaUBKTNV-1">
          <mxGeometry x="165" y="160" width="110" height="40" as="geometry" />
        </mxCell>
        <mxCell id="NYS3Yz4hThbu2-1FY5jQ-6" value="" style="endArrow=none;dashed=1;html=1;exitX=1;exitY=0.5;exitDx=0;exitDy=0;entryX=0;entryY=0.5;entryDx=0;entryDy=0;" edge="1" parent="WIyWlLk6GJQsqaUBKTNV-1" source="NYS3Yz4hThbu2-1FY5jQ-1">
          <mxGeometry width="50" height="50" relative="1" as="geometry">
            <mxPoint x="390" y="320" as="sourcePoint" />
            <mxPoint x="360" y="180" as="targetPoint" />
          </mxGeometry>
        </mxCell>
        <mxCell id="NYS3Yz4hThbu2-1FY5jQ-9" value="Unretricted =&amp;nbsp; endtime Last Activity -&amp;gt; threshold" style="shape=hexagon;perimeter=hexagonPerimeter2;whiteSpace=wrap;html=1;fixedSize=1;" vertex="1" parent="WIyWlLk6GJQsqaUBKTNV-1">
          <mxGeometry x="351" y="140" width="290" height="80" as="geometry" />
        </mxCell>
        <mxCell id="NYS3Yz4hThbu2-1FY5jQ-11" value="&lt;h1&gt;Assume all trigger is valid&lt;/h1&gt;&lt;p&gt;- Thesrhold = bed time - sum of time to complete of task have complete by tomorow&lt;/p&gt;&lt;p&gt;-Unrtb: unretricted block&lt;/p&gt;&lt;p&gt;-tb : timeblock&lt;/p&gt;&lt;p&gt;&lt;br&gt;&lt;/p&gt;" style="text;html=1;strokeColor=none;fillColor=none;spacing=5;spacingTop=-20;whiteSpace=wrap;overflow=hidden;rounded=0;" vertex="1" parent="WIyWlLk6GJQsqaUBKTNV-1">
          <mxGeometry x="520" y="-50" width="310" height="160" as="geometry" />
        </mxCell>
        <mxCell id="NYS3Yz4hThbu2-1FY5jQ-30" style="edgeStyle=orthogonalEdgeStyle;rounded=0;orthogonalLoop=1;jettySize=auto;html=1;exitX=1;exitY=0.5;exitDx=0;exitDy=0;entryX=0;entryY=0.5;entryDx=0;entryDy=0;" edge="1" parent="WIyWlLk6GJQsqaUBKTNV-1" source="NYS3Yz4hThbu2-1FY5jQ-12" target="NYS3Yz4hThbu2-1FY5jQ-15">
          <mxGeometry relative="1" as="geometry" />
        </mxCell>
        <mxCell id="NYS3Yz4hThbu2-1FY5jQ-12" value="Schedule task in Unrtb" style="rounded=1;whiteSpace=wrap;html=1;" vertex="1" parent="WIyWlLk6GJQsqaUBKTNV-1">
          <mxGeometry x="160" y="270" width="120" height="40" as="geometry" />
        </mxCell>
        <mxCell id="NYS3Yz4hThbu2-1FY5jQ-31" style="edgeStyle=orthogonalEdgeStyle;rounded=0;orthogonalLoop=1;jettySize=auto;html=1;entryX=0;entryY=0.5;entryDx=0;entryDy=0;" edge="1" parent="WIyWlLk6GJQsqaUBKTNV-1" source="NYS3Yz4hThbu2-1FY5jQ-15" target="NYS3Yz4hThbu2-1FY5jQ-16">
          <mxGeometry relative="1" as="geometry" />
        </mxCell>
        <mxCell id="NYS3Yz4hThbu2-1FY5jQ-33" style="edgeStyle=orthogonalEdgeStyle;rounded=0;orthogonalLoop=1;jettySize=auto;html=1;entryX=0.5;entryY=0;entryDx=0;entryDy=0;" edge="1" parent="WIyWlLk6GJQsqaUBKTNV-1" source="NYS3Yz4hThbu2-1FY5jQ-15" target="NYS3Yz4hThbu2-1FY5jQ-22">
          <mxGeometry relative="1" as="geometry" />
        </mxCell>
        <mxCell id="NYS3Yz4hThbu2-1FY5jQ-15" value="start time of tb - current time&lt;br&gt;&amp;nbsp;&amp;gt;= 10&amp;nbsp;&lt;br&gt;&amp;amp;current time in unrtb" style="rhombus;whiteSpace=wrap;html=1;" vertex="1" parent="WIyWlLk6GJQsqaUBKTNV-1">
          <mxGeometry x="320" y="240" width="230" height="90" as="geometry" />
        </mxCell>
        <mxCell id="NYS3Yz4hThbu2-1FY5jQ-16" value="Noti 0&lt;br&gt;" style="rounded=1;whiteSpace=wrap;html=1;" vertex="1" parent="WIyWlLk6GJQsqaUBKTNV-1">
          <mxGeometry x="650" y="255" width="120" height="60" as="geometry" />
        </mxCell>
        <mxCell id="NYS3Yz4hThbu2-1FY5jQ-34" style="edgeStyle=orthogonalEdgeStyle;rounded=0;orthogonalLoop=1;jettySize=auto;html=1;entryX=0;entryY=0.5;entryDx=0;entryDy=0;" edge="1" parent="WIyWlLk6GJQsqaUBKTNV-1" source="NYS3Yz4hThbu2-1FY5jQ-22" target="NYS3Yz4hThbu2-1FY5jQ-23">
          <mxGeometry relative="1" as="geometry" />
        </mxCell>
        <mxCell id="NYS3Yz4hThbu2-1FY5jQ-22" value="current time = start time of tb" style="rhombus;whiteSpace=wrap;html=1;" vertex="1" parent="WIyWlLk6GJQsqaUBKTNV-1">
          <mxGeometry x="301" y="410" width="270" height="80" as="geometry" />
        </mxCell>
        <mxCell id="NYS3Yz4hThbu2-1FY5jQ-35" style="edgeStyle=orthogonalEdgeStyle;rounded=0;orthogonalLoop=1;jettySize=auto;html=1;entryX=0;entryY=0.5;entryDx=0;entryDy=0;" edge="1" parent="WIyWlLk6GJQsqaUBKTNV-1" source="NYS3Yz4hThbu2-1FY5jQ-23" target="NYS3Yz4hThbu2-1FY5jQ-24">
          <mxGeometry relative="1" as="geometry" />
        </mxCell>
        <mxCell id="NYS3Yz4hThbu2-1FY5jQ-23" value="noti 1" style="rounded=1;whiteSpace=wrap;html=1;" vertex="1" parent="WIyWlLk6GJQsqaUBKTNV-1">
          <mxGeometry x="650" y="420" width="120" height="60" as="geometry" />
        </mxCell>
        <mxCell id="NYS3Yz4hThbu2-1FY5jQ-37" style="edgeStyle=orthogonalEdgeStyle;rounded=0;orthogonalLoop=1;jettySize=auto;html=1;entryX=0;entryY=0.5;entryDx=0;entryDy=0;" edge="1" parent="WIyWlLk6GJQsqaUBKTNV-1" source="NYS3Yz4hThbu2-1FY5jQ-24" target="NYS3Yz4hThbu2-1FY5jQ-25">
          <mxGeometry relative="1" as="geometry" />
        </mxCell>
        <mxCell id="NYS3Yz4hThbu2-1FY5jQ-41" style="edgeStyle=orthogonalEdgeStyle;rounded=0;orthogonalLoop=1;jettySize=auto;html=1;entryX=0.5;entryY=0;entryDx=0;entryDy=0;" edge="1" parent="WIyWlLk6GJQsqaUBKTNV-1" source="NYS3Yz4hThbu2-1FY5jQ-24" target="NYS3Yz4hThbu2-1FY5jQ-27">
          <mxGeometry relative="1" as="geometry">
            <mxPoint x="930" y="549.9999999999995" as="targetPoint" />
          </mxGeometry>
        </mxCell>
        <mxCell id="NYS3Yz4hThbu2-1FY5jQ-24" value="Start" style="rhombus;whiteSpace=wrap;html=1;" vertex="1" parent="WIyWlLk6GJQsqaUBKTNV-1">
          <mxGeometry x="890" y="410" width="80" height="80" as="geometry" />
        </mxCell>
        <mxCell id="NYS3Yz4hThbu2-1FY5jQ-25" value="route to task in progress" style="rounded=1;whiteSpace=wrap;html=1;" vertex="1" parent="WIyWlLk6GJQsqaUBKTNV-1">
          <mxGeometry x="1070" y="420" width="120" height="60" as="geometry" />
        </mxCell>
        <mxCell id="NYS3Yz4hThbu2-1FY5jQ-42" style="edgeStyle=orthogonalEdgeStyle;rounded=0;orthogonalLoop=1;jettySize=auto;html=1;entryX=0;entryY=0.5;entryDx=0;entryDy=0;" edge="1" parent="WIyWlLk6GJQsqaUBKTNV-1" source="NYS3Yz4hThbu2-1FY5jQ-27" target="NYS3Yz4hThbu2-1FY5jQ-29">
          <mxGeometry relative="1" as="geometry" />
        </mxCell>
        <mxCell id="NYS3Yz4hThbu2-1FY5jQ-27" value="After 10 minute =&amp;gt; noti 2" style="rounded=1;whiteSpace=wrap;html=1;" vertex="1" parent="WIyWlLk6GJQsqaUBKTNV-1">
          <mxGeometry x="870" y="580" width="120" height="60" as="geometry" />
        </mxCell>
        <mxCell id="NYS3Yz4hThbu2-1FY5jQ-28" value="route to task in progress" style="rounded=1;whiteSpace=wrap;html=1;" vertex="1" parent="WIyWlLk6GJQsqaUBKTNV-1">
          <mxGeometry x="1210" y="580" width="120" height="60" as="geometry" />
        </mxCell>
        <mxCell id="NYS3Yz4hThbu2-1FY5jQ-39" style="edgeStyle=orthogonalEdgeStyle;rounded=0;orthogonalLoop=1;jettySize=auto;html=1;entryX=0;entryY=0.5;entryDx=0;entryDy=0;" edge="1" parent="WIyWlLk6GJQsqaUBKTNV-1" source="NYS3Yz4hThbu2-1FY5jQ-29" target="NYS3Yz4hThbu2-1FY5jQ-28">
          <mxGeometry relative="1" as="geometry" />
        </mxCell>
        <mxCell id="NYS3Yz4hThbu2-1FY5jQ-45" style="edgeStyle=orthogonalEdgeStyle;rounded=0;orthogonalLoop=1;jettySize=auto;html=1;" edge="1" parent="WIyWlLk6GJQsqaUBKTNV-1" source="NYS3Yz4hThbu2-1FY5jQ-29" target="NYS3Yz4hThbu2-1FY5jQ-44">
          <mxGeometry relative="1" as="geometry" />
        </mxCell>
        <mxCell id="NYS3Yz4hThbu2-1FY5jQ-29" value="Start" style="rhombus;whiteSpace=wrap;html=1;" vertex="1" parent="WIyWlLk6GJQsqaUBKTNV-1">
          <mxGeometry x="1050" y="570" width="80" height="80" as="geometry" />
        </mxCell>
        <mxCell id="NYS3Yz4hThbu2-1FY5jQ-44" value="After 10 minute trigger to guardian&lt;br&gt;" style="rounded=1;whiteSpace=wrap;html=1;" vertex="1" parent="WIyWlLk6GJQsqaUBKTNV-1">
          <mxGeometry x="1030" y="700" width="120" height="60" as="geometry" />
        </mxCell>
      </root>
    </mxGraphModel>
  </diagram>
</mxfile>
